<?xml version="1.0" encoding="UTF-8"?><svg id="Layer_1" xmlns="http://www.w3.org/2000/svg" viewBox="0 0 841.89 509.99"><defs><style>.cls-1{fill:#f97825;}.cls-2{fill:#1a5ebf;}</style></defs><path class="cls-1" d="M303.54,226.86v47.29c0,2.16-1.75,3.91-3.91,3.91h-7.6v-44.56c0-1.4-.75-2.69-1.96-3.39l-44.6-25.75c-1.21-.7-2.7-.7-3.91,0l-44.59,25.75c-1.21,.7-1.96,1.99-1.96,3.39v42.31c0,1.4-.74,2.69-1.95,3.39l-48.87,28.93v-11.08c0-1.38,.72-2.65,1.91-3.36l35.43-21.13c1.21-.7,1.96-1.99,1.96-3.39v-42.32c0-1.4,.75-2.69,1.96-3.39l56.11-32.4c1.21-.7,2.7-.7,3.91,0l56.11,32.4c1.21,.7,1.96,1.99,1.96,3.39Z"/><g><path class="cls-2" d="M404.7,213.41v5.78c0,1.72-.19,3.1-.58,4.16-.39,1.05-.76,1.93-1.11,2.64l-22.49,47.65c-.62,1.25-1.5,2.31-2.64,3.2-1.14,.89-2.66,1.33-4.56,1.33h-10.05l23.11-46.36c.68-1.24,1.37-2.38,2.07-3.4,.7-1.02,1.47-1.99,2.33-2.91h-28.49c-.42,0-.81-.08-1.18-.24-.37-.16-.7-.39-.98-.67-.28-.28-.51-.61-.69-.98-.18-.37-.27-.75-.27-1.13v-9.07h45.52Z"/><path class="cls-2" d="M438.06,219.45c0,1.1-.22,2.13-.67,3.09-.44,.96-1.05,1.81-1.82,2.53-.77,.73-1.67,1.3-2.69,1.73-1.02,.43-2.11,.64-3.27,.64s-2.18-.22-3.16-.64c-.98-.43-1.84-1.01-2.6-1.73-.75-.73-1.35-1.57-1.78-2.53-.43-.96-.64-1.99-.64-3.09s.22-2.18,.64-3.16c.43-.98,1.02-1.84,1.78-2.58,.76-.74,1.62-1.32,2.6-1.73,.98-.42,2.03-.62,3.16-.62s2.24,.21,3.27,.62c1.02,.41,1.92,.99,2.69,1.73,.77,.74,1.38,1.6,1.82,2.58,.44,.98,.67,2.03,.67,3.16Zm-1.42,12.62v46.09h-13.78v-46.09h13.78Z"/><path class="cls-2" d="M440.84,278.17v-46.09h8.54c1.72,0,2.85,.77,3.38,2.31l.76,2.49c.77-.8,1.57-1.53,2.4-2.2,.83-.67,1.73-1.24,2.69-1.73,.96-.49,2-.87,3.11-1.16,1.11-.28,2.33-.42,3.67-.42,2.79,0,5.09,.72,6.91,2.16,1.82,1.44,3.21,3.36,4.16,5.76,.77-1.42,1.71-2.64,2.82-3.64,1.11-1.01,2.31-1.82,3.6-2.45s2.65-1.08,4.09-1.38c1.44-.29,2.87-.44,4.29-.44,2.64,0,4.98,.39,7.02,1.18,2.04,.78,3.75,1.93,5.13,3.42,1.38,1.5,2.42,3.34,3.13,5.51s1.07,4.64,1.07,7.4v29.29h-13.78v-29.29c0-4.77-2.04-7.16-6.13-7.16-1.87,0-3.42,.61-4.65,1.84-1.23,1.23-1.84,3-1.84,5.31v29.29h-13.78v-29.29c0-2.64-.52-4.49-1.56-5.56-1.04-1.07-2.56-1.6-4.58-1.6-1.24,0-2.42,.28-3.53,.84-1.11,.56-2.16,1.32-3.13,2.27v33.34h-13.78Z"/><path class="cls-2" d="M533.3,231.36c3.5,0,6.68,.55,9.56,1.64,2.87,1.1,5.34,2.67,7.4,4.71,2.06,2.05,3.66,4.53,4.8,7.45,1.14,2.92,1.71,6.2,1.71,9.84s-.57,6.99-1.71,9.94c-1.14,2.95-2.74,5.45-4.8,7.51-2.06,2.06-4.53,3.64-7.4,4.76-2.88,1.11-6.06,1.67-9.56,1.67s-6.73-.56-9.62-1.67c-2.89-1.11-5.38-2.7-7.47-4.76-2.09-2.06-3.7-4.56-4.84-7.51-1.14-2.95-1.71-6.26-1.71-9.94s.57-6.93,1.71-9.84c1.14-2.92,2.75-5.4,4.84-7.45,2.09-2.04,4.58-3.62,7.47-4.71,2.89-1.1,6.1-1.64,9.62-1.64Zm0,37.29c3.17,0,5.5-1.12,7-3.36,1.5-2.24,2.24-5.64,2.24-10.2s-.75-7.96-2.24-10.18c-1.5-2.22-3.83-3.33-7-3.33s-5.64,1.11-7.16,3.33c-1.51,2.22-2.27,5.62-2.27,10.18s.75,7.97,2.27,10.2c1.51,2.24,3.9,3.36,7.16,3.36Zm13.98-51.42l-9.28,9.38c-.55,.55-1.07,.93-1.57,1.16s-1.17,.34-2,.34h-6.64l4.85-8.74c.4-.69,.88-1.22,1.43-1.59,.55-.37,1.38-.55,2.5-.55h10.7Z"/><path class="cls-2" d="M601.13,232.07l-17.87,46.09h-12.54l-17.87-46.09h11.47c.98,0,1.8,.23,2.47,.69,.67,.46,1.12,1.03,1.36,1.71l6.4,20.67c.56,1.69,1.06,3.33,1.49,4.93,.43,1.6,.81,3.2,1.13,4.8,.65-3.2,1.56-6.44,2.71-9.73l6.67-20.67c.24-.68,.68-1.25,1.33-1.71,.65-.46,1.42-.69,2.31-.69h10.93Z"/><path class="cls-2" d="M610.95,257.59c.44,3.85,1.62,6.65,3.51,8.38,1.9,1.73,4.34,2.6,7.33,2.6,1.6,0,2.98-.19,4.13-.58,1.16-.38,2.19-.81,3.09-1.29,.9-.47,1.73-.9,2.49-1.29s1.55-.58,2.38-.58c1.1,0,1.92,.4,2.49,1.2l4,4.93c-1.42,1.63-2.96,2.96-4.6,3.98-1.64,1.02-3.33,1.82-5.07,2.4-1.73,.58-3.47,.98-5.2,1.2s-3.39,.33-4.96,.33c-3.23,0-6.26-.53-9.09-1.58-2.83-1.05-5.3-2.62-7.42-4.69-2.12-2.07-3.79-4.65-5.02-7.73-1.23-3.08-1.84-6.67-1.84-10.76,0-3.08,.52-6,1.58-8.76,1.05-2.76,2.56-5.17,4.53-7.25,1.97-2.07,4.36-3.72,7.16-4.93,2.8-1.21,5.96-1.82,9.49-1.82,3.05,0,5.84,.47,8.38,1.42,2.53,.95,4.71,2.33,6.53,4.13s3.24,4.02,4.27,6.65c1.02,2.62,1.53,5.59,1.53,8.91,0,1.04-.04,1.88-.13,2.53-.09,.65-.25,1.17-.49,1.56-.24,.39-.56,.65-.95,.8-.4,.15-.91,.22-1.53,.22h-26.58Zm17.34-8c0-1.1-.14-2.16-.42-3.2-.28-1.04-.74-1.96-1.38-2.78-.64-.81-1.48-1.47-2.51-1.98-1.04-.5-2.3-.76-3.78-.76-2.61,0-4.65,.75-6.13,2.24-1.48,1.5-2.46,3.65-2.93,6.47h17.16Z"/><path class="cls-2" d="M658.6,219.45c0,1.1-.22,2.13-.67,3.09-.44,.96-1.05,1.81-1.82,2.53-.77,.73-1.67,1.3-2.69,1.73-1.02,.43-2.11,.64-3.27,.64s-2.18-.22-3.16-.64c-.98-.43-1.84-1.01-2.6-1.73-.75-.73-1.35-1.57-1.78-2.53-.43-.96-.64-1.99-.64-3.09s.22-2.18,.64-3.16c.43-.98,1.02-1.84,1.78-2.58,.76-.74,1.62-1.32,2.6-1.73,.98-.42,2.03-.62,3.16-.62s2.24,.21,3.27,.62c1.02,.41,1.92,.99,2.69,1.73,.77,.74,1.38,1.6,1.82,2.58,.44,.98,.67,2.03,.67,3.16Zm-1.42,12.62v46.09h-13.78v-46.09h13.78Z"/><path class="cls-2" d="M691.67,242.17c-.36,.56-.73,.96-1.13,1.2-.4,.24-.91,.36-1.53,.36-.65,0-1.31-.14-1.96-.42-.65-.28-1.35-.58-2.11-.91-.76-.33-1.61-.63-2.56-.91-.95-.28-2.03-.42-3.24-.42-1.75,0-3.09,.33-4.02,1-.94,.67-1.4,1.59-1.4,2.78,0,.86,.3,1.57,.91,2.13s1.41,1.06,2.42,1.49c1.01,.43,2.15,.84,3.42,1.22,1.27,.39,2.58,.82,3.91,1.29,1.33,.47,2.64,1.03,3.91,1.67,1.28,.64,2.41,1.42,3.42,2.36,1.01,.93,1.81,2.07,2.42,3.4s.91,2.93,.91,4.8c0,2.28-.42,4.39-1.24,6.31-.83,1.93-2.07,3.59-3.71,4.98-1.65,1.39-3.68,2.48-6.09,3.24-2.42,.77-5.19,1.16-8.33,1.16-1.57,0-3.14-.15-4.71-.44-1.57-.3-3.09-.7-4.56-1.2-1.47-.5-2.82-1.1-4.07-1.8s-2.31-1.45-3.2-2.24l3.2-5.07c.36-.59,.81-1.06,1.35-1.4s1.25-.51,2.11-.51c.8,0,1.52,.18,2.16,.53,.64,.36,1.33,.74,2.07,1.16,.74,.42,1.61,.8,2.6,1.16,.99,.36,2.24,.53,3.76,.53,1.07,0,1.97-.11,2.71-.33,.74-.22,1.33-.53,1.78-.91s.77-.81,.98-1.29c.21-.47,.31-.96,.31-1.47,0-.92-.31-1.67-.93-2.27s-1.44-1.1-2.45-1.53c-1.01-.43-2.16-.83-3.45-1.2-1.29-.37-2.6-.79-3.93-1.27-1.33-.47-2.64-1.05-3.93-1.71-1.29-.67-2.44-1.51-3.44-2.53s-1.82-2.27-2.45-3.76c-.62-1.48-.93-3.27-.93-5.38,0-1.96,.38-3.82,1.13-5.58,.75-1.76,1.89-3.31,3.4-4.64,1.51-1.33,3.41-2.39,5.69-3.18,2.28-.78,4.95-1.18,8-1.18,1.66,0,3.27,.15,4.82,.44,1.56,.3,3.02,.71,4.38,1.25,1.36,.53,2.61,1.16,3.73,1.89,1.13,.73,2.12,1.52,2.98,2.38l-3.11,4.85Z"/><path class="cls-2" d="M343.42,213.36l-20.18,16.94,4.36,5.78c.21,.3,.53,.58,.98,.87,.44,.28,.95,.47,1.51,.58,.56,.1,1.16,.1,1.8,0,.64-.1,1.28-.41,1.93-.91l7.38-6.14c-.06,.86-.1,1.71-.13,2.56-.03,.84-.04,1.68-.04,2.51v42.63h8.15s.03,0,.05,0c3,0,5.42-2.37,5.55-5.33h.02v-59.47h-11.38Z"/></g><path class="cls-2" d="M267.65,247.22h-21.69c-1,0-1.47-.31-1.89-1.22-2.63-5.7-9.1-8.52-15.08-6.73-5.43,1.62-9.83,7.26-8.92,13.92,.88,6.43,6.4,11.26,13.04,11,5.1-.2,8.84-2.8,11.05-7.44,.35-.74,.72-1.06,1.58-1.04,2.04,.07,5.07,.02,7.11,.02,.94,0,2.62,0,4.37,0,.13,1.14,1.04,2.02,2.16,2.02s2.01-.88,2.15-2.02h1.22c.14,1.13,1.04,2.02,2.15,2.02s2.02-.88,2.15-2.02h.59c1.32,0,2.41-1.08,2.41-2.41v-3.72c0-1.32-1.08-2.41-2.41-2.41Zm-34.98,9.74c-3.02,0-5.48-2.45-5.48-5.48s2.45-5.48,5.48-5.48,5.48,2.45,5.48,5.48-2.45,5.48-5.48,5.48Z"/></svg>