<?xml version="1.0" encoding="UTF-8"?><svg id="Layer_1" xmlns="http://www.w3.org/2000/svg" viewBox="0 0 234.92 181.83"><defs><style>.cls-1{fill:#f97825;}.cls-2{fill:#1a5ebf;}</style></defs><path class="cls-1" d="M200.57,68.03v47.29c0,2.16-1.75,3.91-3.91,3.91h-7.6v-44.56c0-1.4-.75-2.69-1.96-3.39l-44.6-25.75c-1.21-.7-2.7-.7-3.91,0l-44.59,25.75c-1.21,.7-1.96,1.99-1.96,3.39v42.31c0,1.4-.74,2.69-1.95,3.39l-48.87,28.93v-11.08c0-1.38,.72-2.65,1.91-3.36l35.43-21.13c1.21-.7,1.96-1.99,1.96-3.39v-42.32c0-1.4,.75-2.69,1.96-3.39l56.11-32.4c1.21-.7,2.7-.7,3.91,0l56.11,32.4c1.21,.7,1.96,1.99,1.96,3.39Z"/><path class="cls-2" d="M164.69,88.38h-21.69c-1,0-1.47-.31-1.89-1.22-2.63-5.7-9.1-8.52-15.08-6.73-5.43,1.62-9.83,7.26-8.92,13.92,.88,6.43,6.4,11.26,13.04,11,5.1-.2,8.84-2.8,11.05-7.44,.35-.74,.72-1.06,1.58-1.04,2.04,.07,5.07,.02,7.11,.02,.94,0,2.62,0,4.37,0,.13,1.14,1.04,2.02,2.16,2.02s2.01-.88,2.15-2.02h1.22c.14,1.13,1.04,2.02,2.15,2.02s2.02-.88,2.15-2.02h.59c1.32,0,2.41-1.08,2.41-2.41v-3.72c0-1.32-1.08-2.41-2.41-2.41Zm-34.98,9.74c-3.02,0-5.48-2.45-5.48-5.48s2.45-5.48,5.48-5.48,5.48,2.45,5.48,5.48-2.45,5.48-5.48,5.48Z"/></svg>